<svg xmlns="http://www.w3.org/2000/svg" xml:space="preserve" width="2000" height="1500" data-id="lg_bKlMcgNEshXHLycQbO" data-version="1" viewBox="0 0 2000 1500"><path fill="#fff" stroke="transparent" d="M0 0h2000v1500H0z"/><g data-padding="20"><g transform="translate(-1651.786 -1249.458)scale(2.5829)"><rect width="380.903" height="77.97" x="435.712" y="334.646" fill="none" rx="0" ry="0" transform="translate(490.05 400.37)"/><path fill="#363636" d="M935.294 747.381h-7.45l20.21 48.3h4.14l19.6-48.3h-3.59l-16.08 39.74h-.27Zm52.16 13.79h-5.86v34.5h5.86Zm-6.69-10.91q0 1.52 1.1 2.63 1.11 1.1 2.63 1.1 1.51 0 2.62-1.1 1.1-1.11 1.1-2.63 0-1.51-1.1-2.62-1.11-1.1-2.62-1.1-1.52 0-2.63 1.1-1.1 1.11-1.1 2.62m46.08 10.92h-29.25v2.76h20.76l-21.87 31.74h30.15v-2.76h-21.66Zm10.15 2.75h-6v-2.76h6v-10.63h5.87v10.63h8.35v2.76h-8.35v22.9q0 .83.07 1.9t.41 2q.35.93 1.07 1.55.73.63 2.04.63 1.65 0 2.76-1.25 1.1-1.24 1.79-2.69l3.24 3.31q-3.38 3.39-7.65 3.39-1.8 0-3.52-.63-1.73-.62-3.07-1.89-1.35-1.28-2.18-3.28t-.83-4.69Zm27.73 16h26.22v-1.45q0-4.62-1.31-8t-3.55-5.59-5.21-3.31-6.28-1.1q-3.52 0-6.49 1.2-2.96 1.21-5.17 3.52t-3.45 5.59-1.24 7.42q0 3.45 1.07 6.73 1.07 3.27 3.24 5.86t5.52 4.14 7.9 1.55q4.42 0 8.14-1.55 3.73-1.55 6.49-4.45l-2.21-2.21q-1.45 1.24-2.73 2.28-1.27 1.03-2.58 1.72t-2.73 1.07q-1.41.38-3.14.38-1.93 0-4.1-.58-2.18-.59-4.04-2.11t-3.11-4.21q-1.24-2.69-1.24-6.9m20.22-2.76h-20.22q0-2.76.59-5.34.59-2.59 1.79-4.59 1.21-2 3.07-3.21 1.87-1.21 4.42-1.21 4.9 0 7.62 3.83 2.73 3.83 2.73 10.52m32.29 15.75q-2.48 0-4.79-.76-2.32-.76-4.11-2.45t-2.86-4.49q-1.07-2.79-1.07-6.86 0-4.21 1.17-7.14 1.17-2.94 2.93-4.7t3.9-2.55 4.07-.79q3.18 0 5.52 1.65 2.35 1.66 3.11 4.07h4.76q-.69-2.48-2.21-4.1t-3.48-2.62q-1.97-1-4.21-1.38-2.25-.38-4.32-.38-4.34 0-7.65 1.41-3.32 1.42-5.59 3.83-2.28 2.42-3.42 5.66t-1.14 6.9q0 3.86 1.24 7.21 1.25 3.35 3.56 5.8 2.31 2.44 5.55 3.86 3.25 1.41 7.32 1.41 4.55 0 7.97-1.51 3.41-1.52 5.76-3.32l-2-2.62q-2.42 2-4.8 2.93-2.38.94-5.21.94m26.08-45.54h-5.86v48.3h5.86v-19.95q0-1.38.21-3.38t1.14-3.86 2.79-3.21q1.87-1.34 5.18-1.34 2.34 0 3.76.86 1.41.86 2.17 2.31t1 3.38.24 4v21.19h5.87v-22.77q0-3.87-1.1-6.32-1.11-2.45-2.76-3.83-1.66-1.38-3.63-1.86-1.96-.48-3.76-.48-2.41 0-5.07.93t-5 3.55l-.76.97h-.28Zm33.41 45.32q0-1.52 1.1-2.62 1.11-1.11 2.63-1.11 1.51 0 2.62 1.11 1.1 1.1 1.1 2.62t-1.1 2.62q-1.11 1.1-2.62 1.1-1.52 0-2.63-1.1-1.1-1.1-1.1-2.62m25.73 2.98v-48.3h-5.87v48.3Zm20.49-34.51h-5.87v34.5h5.87Zm-6.69-10.91q0 1.52 1.1 2.63 1.1 1.1 2.62 1.1t2.62-1.1q1.11-1.11 1.11-2.63 0-1.51-1.11-2.62-1.1-1.1-2.62-1.1t-2.62 1.1q-1.1 1.11-1.1 2.62m21.8 10.92h-6.07l14.35 34.5h4.14l13.94-34.5h-3.24l-11.18 27.66h-.42Zm37.67 18.75h26.22v-1.45q0-4.62-1.31-8t-3.55-5.59-5.21-3.31-6.28-1.1q-3.52 0-6.48 1.2-2.97 1.21-5.18 3.52t-3.45 5.59-1.24 7.42q0 3.45 1.07 6.73 1.07 3.27 3.24 5.86t5.52 4.14 7.9 1.55q4.42 0 8.14-1.55 3.73-1.55 6.49-4.45l-2.21-2.21q-1.45 1.24-2.72 2.28-1.28 1.03-2.59 1.72t-2.73 1.07q-1.41.38-3.14.38-1.93 0-4.1-.58-2.18-.59-4.04-2.11t-3.1-4.21q-1.25-2.69-1.25-6.9m20.22-2.76h-20.22q0-2.76.59-5.34.59-2.59 1.8-4.59 1.2-2 3.07-3.21 1.86-1.21 4.41-1.21 4.9 0 7.63 3.83 2.72 3.83 2.72 10.52"/><rect width="135.652" height="197.75" x="558.338" y="274.756" fill="none" rx="0" ry="0" transform="translate(188.33 400.48)"/><path fill="#363636" d="M829.294 829.081h-29.05l-50.05-113.23h25.72l42.88 102.2h-8.05l42.7-102.2h25.37Z"/></g><path fill="transparent" stroke="transparent" stroke-width="2.679" d="M250 484.821h1500v530.358H250z"/></g></svg>