<?xml version="1.0" standalone="no"?>
<!DOCTYPE svg PUBLIC "-//W3C//DTD SVG 20010904//EN"
 "http://www.w3.org/TR/2001/REC-SVG-20010904/DTD/svg10.dtd">
<svg version="1.0" xmlns="http://www.w3.org/2000/svg"
 width="360.000000pt" height="292.000000pt" viewBox="0 0 360.000000 292.000000"
 preserveAspectRatio="xMidYMid meet">

<g transform="translate(0.000000,292.000000) scale(0.100000,-0.100000)"
fill="#000000" stroke="none">
<path d="M1447 2544 c-67 -16 -125 -47 -219 -117 -137 -102 -208 -252 -208
-438 0 -257 149 -460 400 -545 75 -26 253 -25 325 1 112 40 176 77 239 140
102 102 166 258 166 405 0 360 -354 639 -703 554z m293 -82 c119 -41 189 -94
258 -193 54 -80 74 -143 80 -256 4 -84 1 -113 -16 -170 -66 -214 -252 -353
-475 -353 -141 0 -251 44 -353 142 -161 154 -200 389 -98 589 39 78 139 173
226 214 41 20 94 40 119 45 64 13 195 4 259 -18z"/>
<path d="M1494 2085 c-81 -86 -39 -212 74 -223 85 -8 142 41 142 123 0 79 -55
135 -133 135 -44 0 -53 -4 -83 -35z"/>
<path d="M540 995 c0 -18 5 -25 20 -25 15 0 20 7 20 25 0 18 -5 25 -20 25 -15
0 -20 -7 -20 -25z"/>
<path d="M1380 845 c0 -168 1 -175 20 -175 19 0 20 7 20 175 0 168 -1 175 -20
175 -19 0 -20 -7 -20 -175z"/>
<path d="M224 948 c105 -278 103 -273 129 -276 16 -2 27 3 32 15 44 112 115
305 115 313 0 17 -37 11 -45 -7 -4 -10 -27 -72 -52 -138 -24 -66 -46 -121 -47
-123 -2 -1 -27 61 -56 138 -47 125 -55 140 -76 140 l-23 0 23 -62z"/>
<path d="M1639 995 c-51 -27 -58 -112 -13 -141 12 -9 46 -22 74 -29 64 -17 80
-30 80 -67 0 -52 -77 -68 -162 -33 -14 5 -18 2 -18 -14 0 -27 35 -41 101 -41
60 0 106 22 119 56 27 70 -5 117 -95 140 -71 19 -85 29 -85 59 0 44 57 62 138
42 28 -8 32 -6 32 11 0 12 -9 22 -22 26 -41 10 -122 6 -149 -9z"/>
<path d="M1917 993 c-4 -3 -7 -21 -7 -40 0 -23 -5 -33 -15 -33 -8 0 -15 -7
-15 -15 0 -8 6 -15 14 -15 11 0 15 -21 18 -90 4 -111 11 -120 101 -127 l65 -6
3 98 c4 108 14 125 76 125 23 0 33 5 33 15 0 32 -62 31 -94 -1 -14 -14 -16
-14 -16 0 0 12 -14 16 -62 18 l-63 3 -3 38 c-3 34 -18 48 -35 30z m123 -193
l0 -90 -35 0 c-45 0 -55 20 -55 109 l0 71 45 0 45 0 0 -90z"/>
<path d="M2450 965 c0 -22 -6 -38 -15 -41 -8 -4 -15 -12 -15 -20 0 -8 7 -14
15 -14 12 0 15 -16 15 -88 0 -55 5 -95 13 -105 7 -9 33 -20 60 -23 43 -6 47
-5 47 14 0 17 -7 21 -37 24 l-38 3 -3 88 -3 87 41 0 c29 0 40 4 40 15 0 11
-11 15 -39 15 -39 0 -40 1 -43 37 -2 27 -8 39 -20 41 -15 3 -18 -4 -18 -33z"/>
<path d="M661 917 c-14 -6 -29 -25 -34 -40 -14 -42 11 -72 80 -94 45 -14 59
-23 61 -40 6 -40 -44 -51 -125 -27 -19 5 -23 2 -23 -14 0 -23 25 -32 91 -32
62 0 99 28 99 75 0 39 -20 57 -86 74 -54 14 -73 36 -51 58 17 17 57 22 100 10
22 -6 27 -4 27 12 0 31 -91 43 -139 18z"/>
<path d="M1153 923 c-15 -3 -23 -12 -23 -24 0 -16 5 -18 27 -13 47 12 82 8
103 -11 35 -32 25 -42 -46 -47 -76 -5 -104 -27 -104 -82 0 -65 84 -100 145
-60 23 15 25 15 25 0 0 -9 8 -16 20 -16 19 0 20 7 20 90 0 150 -39 188 -167
163z m127 -138 c0 -31 -30 -73 -56 -79 -51 -13 -84 17 -69 63 7 23 23 28 83
30 32 1 42 -3 42 -14z"/>
<path d="M2218 923 c-10 -2 -18 -13 -18 -24 0 -16 4 -18 28 -12 47 13 85 7
104 -17 10 -12 18 -26 18 -30 0 -4 -29 -10 -64 -12 -80 -5 -106 -24 -106 -80
0 -50 27 -78 78 -78 21 0 47 7 58 15 25 19 34 19 34 0 0 -8 9 -15 20 -15 18 0
20 7 20 85 0 100 -17 151 -55 165 -26 10 -85 12 -117 3z m132 -132 c0 -4 -5
-22 -11 -39 -22 -65 -119 -67 -119 -2 0 22 6 33 23 40 28 11 107 13 107 1z"/>
<path d="M2614 911 c-40 -25 -58 -69 -52 -132 7 -70 38 -101 110 -107 61 -4
108 10 108 34 0 11 -5 14 -17 10 -9 -4 -36 -10 -60 -13 -37 -5 -45 -2 -72 25
-54 53 -44 62 64 62 l95 0 0 25 c0 34 -24 80 -52 99 -30 21 -86 20 -124 -3z
m112 -35 c7 -6 15 -21 19 -33 6 -22 4 -23 -69 -23 -42 0 -76 2 -76 5 0 2 5 15
11 29 19 42 84 54 115 22z"/>
<path d="M2857 910 c-33 -26 -51 -81 -43 -132 13 -83 65 -119 137 -94 38 13
39 13 39 -9 0 -34 -47 -68 -85 -62 -16 3 -38 8 -47 12 -14 5 -18 2 -18 -13 0
-25 18 -32 80 -32 95 0 119 47 120 238 l0 102 -25 0 c-14 0 -25 -5 -25 -11 0
-5 -10 -3 -22 5 -31 22 -80 20 -111 -4z m108 -35 c20 -19 25 -34 25 -75 0 -59
-24 -90 -70 -90 -65 0 -91 120 -36 167 34 29 51 29 81 -2z"/>
<path d="M540 795 c0 -118 1 -125 20 -125 19 0 20 7 20 125 0 118 -1 125 -20
125 -19 0 -20 -7 -20 -125z"/>
<path d="M863 819 c4 -87 8 -104 28 -125 26 -28 82 -33 116 -9 19 13 22 13 27
0 3 -8 12 -15 21 -15 13 0 15 19 15 125 0 118 -1 125 -20 125 -17 0 -20 -8
-22 -91 -3 -87 -4 -93 -31 -113 -26 -19 -30 -19 -55 -5 -26 14 -27 18 -30 112
l-3 97 -26 0 -26 0 6 -101z"/>
<path d="M3064 903 c4 -10 25 -63 48 -119 47 -116 46 -149 -2 -167 -17 -6 -30
-17 -30 -24 0 -17 51 -17 73 0 14 10 137 296 137 319 0 4 -9 8 -19 8 -15 0
-28 -21 -57 -96 l-38 -95 -37 93 c-30 75 -41 94 -59 96 -19 3 -22 0 -16 -15z"/>
</g>
</svg>
