<?xml version="1.0" standalone="no"?>
<!DOCTYPE svg PUBLIC "-//W3C//DTD SVG 20010904//EN"
 "http://www.w3.org/TR/2001/REC-SVG-20010904/DTD/svg10.dtd">
<svg version="1.0" xmlns="http://www.w3.org/2000/svg"
 width="102.000000pt" height="68.000000pt" viewBox="0 0 102.000000 68.000000"
 preserveAspectRatio="xMidYMid meet">

<g transform="translate(0.000000,68.000000) scale(0.100000,-0.100000)"
fill="#000000" stroke="none">
<path d="M445 610 c-123 -78 -81 -268 63 -287 170 -23 254 189 112 284 -44 30
-131 31 -175 3z m153 -10 c74 -33 100 -127 55 -198 -38 -61 -136 -81 -200 -41
-98 61 -77 216 33 249 45 13 65 11 112 -10z"/>
<path d="M504 496 c-11 -28 1 -51 25 -51 28 0 47 25 38 49 -8 20 -56 21 -63 2z"/>
<path d="M90 148 c0 -21 29 -88 38 -88 8 0 43 92 37 98 -2 3 -12 -15 -21 -38
l-18 -43 -13 38 c-15 44 -23 55 -23 33z"/>
<path d="M423 110 c0 -30 2 -43 4 -28 2 16 2 40 0 55 -2 16 -4 3 -4 -27z"/>
<path d="M503 153 c-23 -9 -14 -32 18 -49 23 -12 28 -19 20 -27 -9 -9 -17 -8
-32 2 -18 10 -20 10 -17 -1 3 -7 18 -13 34 -13 39 0 45 30 10 46 -34 16 -33
33 1 24 23 -5 25 -4 14 9 -14 16 -26 19 -48 9z"/>
<path d="M579 141 c-3 -7 -3 -28 -1 -47 3 -28 8 -34 28 -34 20 0 24 5 24 29 0
16 6 32 13 34 6 3 -2 6 -20 6 -17 1 -33 7 -35 14 -4 9 -6 9 -9 -2z m31 -47 c0
-14 -4 -23 -10 -19 -5 3 -10 15 -10 26 0 10 5 19 10 19 6 0 10 -12 10 -26z"/>
<path d="M737 143 c-6 -11 4 -83 12 -83 7 0 6 79 -2 86 -3 3 -7 2 -10 -3z"/>
<path d="M183 95 c0 -22 2 -30 4 -17 2 12 2 30 0 40 -3 9 -5 -1 -4 -23z"/>
<path d="M210 116 c0 -7 10 -21 23 -30 l22 -17 -22 5 c-13 2 -23 0 -23 -5 0
-13 38 -11 46 2 4 7 -4 20 -17 31 l-24 19 24 -6 c16 -5 21 -4 17 4 -10 16 -46
14 -46 -3z"/>
<path d="M272 98 c2 -28 8 -34 31 -36 25 -3 27 -1 26 35 -1 35 -2 36 -8 9 -9
-41 -31 -46 -31 -7 0 17 -5 31 -11 31 -6 0 -9 -14 -7 -32z"/>
<path d="M350 121 c0 -5 9 -7 20 -4 11 3 20 0 20 -6 0 -6 -9 -11 -20 -11 -13
0 -20 -7 -20 -20 0 -16 7 -20 30 -20 31 0 34 7 24 48 -4 15 -14 22 -30 22 -13
0 -24 -4 -24 -9z m40 -41 c0 -5 -7 -10 -15 -10 -8 0 -15 5 -15 10 0 6 7 10 15
10 8 0 15 -4 15 -10z"/>
<path d="M666 121 c-4 -5 3 -7 14 -4 11 3 20 0 20 -6 0 -6 -9 -11 -20 -11 -13
0 -20 -7 -20 -20 0 -16 7 -20 30 -20 31 0 34 7 24 48 -6 22 -37 31 -48 13z
m34 -41 c0 -5 -7 -10 -15 -10 -8 0 -15 5 -15 10 0 6 7 10 15 10 8 0 15 -4 15
-10z"/>
<path d="M774 116 c-15 -39 23 -74 50 -46 8 9 6 11 -11 6 -12 -4 -24 -2 -28 4
-4 6 4 10 20 10 20 0 26 4 23 18 -4 22 -46 29 -54 8z m36 -6 c0 -5 -4 -10 -10
-10 -5 0 -10 5 -10 10 0 6 5 10 10 10 6 0 10 -4 10 -10z"/>
<path d="M845 119 c-13 -20 4 -59 26 -59 11 0 17 -4 14 -10 -4 -6 -16 -8 -28
-5 -18 5 -19 4 -5 -5 30 -19 48 -2 48 46 0 40 -2 44 -24 44 -14 0 -28 -5 -31
-11z m40 -24 c0 -10 -5 -20 -11 -22 -13 -4 -27 24 -18 38 9 15 29 4 29 -16z"/>
<path d="M925 93 c12 -29 13 -38 3 -44 -7 -4 -10 -11 -6 -14 9 -9 36 34 42 70
l6 30 -14 -30 -14 -30 -7 28 c-4 15 -11 27 -16 27 -5 0 -2 -17 6 -37z"/>
</g>
</svg>
